<svg version="1" xmlns="http://www.w3.org/2000/svg" width="682.667" height="682.667" viewBox="0 0 512.000000 512.000000"><path d="M129.2 138.9c-6.2 2.2-12.9 8.2-16.1 14.5-2.1 4.3-2.1 4.4-2.1 89.5 0 70.8.2 85.7 1.4 88.5 1.9 4.7 8.2 11.3 13 13.9 3.9 2.1 5.5 2.2 41.1 2.7l37 .5.3 13.2.3 13.3h103.8l.3-13.3.3-13.2 37-.5c35.6-.5 37.2-.6 41.1-2.7 5.6-3 10.8-9.1 12.8-15 1.5-4.4 1.6-13.3 1.4-89.9l-.3-84.9-2.9-4.5c-3.9-6.1-8.8-10-15-12.2-4.8-1.6-12.7-1.7-126.6-1.7-115.4 0-121.8.1-126.8 1.8zM375 243v79H137V164h238v79z"/><path d="M223.8 203.8l-19.8.2v25h144v-26.1l-52.2.3c-28.8.2-61.2.4-72 .6zM164 216.5V229h25v-25h-25v12.5zM164 269v13h26v-3.3c0-1.7-.3-7.6-.7-13l-.6-9.7H164v13zM204 268.9v13l4.3.6c2.3.3 34.6.5 71.7.3l67.5-.3.3-13.3.3-13.2H204v12.9z"/></svg>