<svg version="1" xmlns="http://www.w3.org/2000/svg" width="682.667" height="682.667" viewBox="0 0 512.000000 512.000000"><path d="M387 118c-13.9 2.1-75.5 4.6-149 5.9-54.5 1-55.9 1.2-72 7-26 9.5-49.8 30-71.2 61.1-7.3 10.7-8.8 14.2-8.8 20.9.1 11.6 10.1 21.3 23.1 22.4 6.1.5 9.1-.7 18.7-7.8 12.1-9 30.6-18 47.3-23 8-2.4 22-5 23.7-4.4.9.4-23.7 39.8-27.4 44-1.1 1.2-4.4 1.7-14.9 2.2-10.4.5-14.6 1.1-18.1 2.6-11.4 5.1-16.6 12.6-16.8 24.6-.1 6 .3 7.8 2.9 12.5 3.3 6.1 10.9 12 15.4 12 1.4 0 3.1.4 3.7.8.8.4-3.6 6.7-12.4 17.7-10.9 13.8-14.5 19.2-19 28.3-7 14.6-7.9 21.3-3.8 29.6 2.9 6 9.3 12.4 15.4 15.5 9.5 4.8 18.6 6.5 36.2 6.5 13.9 0 17.7-.4 24.3-2.2 10.1-2.9 16.3-6 21.4-11.1 5.6-5.4 7.4-9.2 12.3-26.2 5.5-19.2 12.9-40.8 16.2-47.6 1.6-3.2 1-3.2 23.3-1.2 7.2.6 21.6 1.3 32.1 1.6 15.5.4 20.6.2 26.4-1.1 19.1-4.4 27.2-13.4 32-35.7 2.7-12.4-.6-26.4-7.3-31.3-3.6-2.6-12.5-2.7-38.2-.3-9.9.9-22.4 1.7-27.8 1.7h-9.8l4.9-9.3c2.8-5 8.3-15.1 12.4-22.2l7.4-13 12.4.3c6.9.1 16.6.8 21.5 1.4 15.5 2 32.8 1.6 41.8-1 21.6-6.2 35.9-16.7 48.2-35.6 13.8-21.2 16.6-34.7 8.6-42.7-5.3-5.3-14.7-6-35.1-2.9z"/></svg>